#!OML:ASF E:\pregnant2\Project 1\Capture day 1\Session 1\pregnant2.ASF
:FULLY-SPECIFIED
:DEGREES
2978
root -5.50823 17.3243 21.2956 26.1963 -0.0765691 -3.05221
lowerback -18.3797 1.04307 0.844314
upperback -13.9442 1.26483 -0.105455
thorax -4.7553 0.580944 -0.413529
lowerneck -16.6721 -3.87709 -5.55751
upperneck 34.0427 -5.60546 4.43019
head 14.9079 -2.51502 1.82031
rclavicle -3.03147e-015 4.37326e-015
rhumerus -113.543 31.3625 -142.79
rradius 83.1132
rwrist 36.6986
rhand -53.73 -55.8623
rfingers 7.12502
rthumb -26.1649 -84.0792
lclavicle -3.03147e-015 4.37326e-015
lhumerus -114.312 -37.3553 144.389
lradius 91.6496
lwrist -16.7689
lhand -45.2915 35.0273
lfingers 7.12502
lthumb -18.0641 64.2085
rfemur -35.1563 8.16808 19.5867
rtibia 27.1714
rfoot -15.3477 -10.1706
rtoes -5.29172
lfemur -35.6186 -7.46388 -9.77337
ltibia 29.5881
lfoot -16.7649 22.7743
ltoes -0.740205
2979
root -5.52137 17.3243 21.2923 26.1834 -0.0748308 -3.08299
lowerback -18.3315 1.06545 0.90195
upperback -13.9315 1.28753 -0.0894157
thorax -4.76467 0.588921 -0.426365
lowerneck -16.7287 -3.8643 -5.53541
upperneck 33.9715 -5.59562 4.45488
head 14.887 -2.50341 1.82676
rclavicle 1.98288e-014 1.27222e-014
rhumerus -113.598 31.347 -142.799
rradius 83.1446
rwrist 36.7119
rhand -53.7587 -55.7839
rfingers 7.12502
rthumb -26.1923 -83.9967
lclavicle 1.98288e-014 1.27222e-014
lhumerus -114.267 -37.3278 144.345
lradius 91.6296
lwrist -16.8118
lhand -45.3077 35.0535
lfingers 7.12502
lthumb -18.0797 64.2332
rfemur -35.1353 8.13169 19.6911
rtibia 27.1235
rfoot -15.3125 -10.1072
rtoes -5.25935
lfemur -35.5998 -7.53001 -9.66184
ltibia 29.5712
lfoot -16.7916 22.8699
ltoes -0.737409
2980
root -5.53383 17.3243 21.2884 26.1738 -0.0714821 -3.10849
lowerback -18.2857 1.08415 0.953815
upperback -13.9159 1.30617 -0.0721331
thorax -4.76954 0.595355 -0.43514
lowerneck -16.7965 -3.85177 -5.51219
upperneck 33.9056 -5.58267 4.4699
head 14.8705 -2.4915 1.82946
rclavicle -1.63997e-015 2.38542e-015
rhumerus -113.644 31.341 -142.798
rradius 83.1757
rwrist 36.7418
rhand -53.781 -55.7232
rfingers 7.12502
rthumb -26.2137 -83.9328
lclavicle -1.63997e-015 2.38542e-015
lhumerus -114.211 -37.3073 144.293
lradius 91.6068
lwrist -16.8743
lhand -45.3189 35.0709
lfingers 7.12502
lthumb -18.0905 64.2496
rfemur -35.1233 8.12488 19.7747
rtibia 27.0835
rfoot -15.2799 -10.0781
rtoes -5.21655
lfemur -35.5886 -7.58866 -9.55931
ltibia 29.5547
lfoot -16.8123 22.9516
ltoes -0.726536
2981
root -5.54539 17.3243 21.2844 26.1583 -0.0718964 -3.13071
lowerback -18.2398 1.10415 1.00571
upperback -13.8926 1.32649 -0.0561969
thorax -4.76592 0.602615 -0.445064
lowerneck -16.8724 -3.83982 -5.48772
upperneck 33.842 -5.56779 4.47707
head 14.8565 -2.47956 1.82894
rclavicle 6.90777e-015 5.1684e-015
rhumerus -113.679 31.3412 -142.782
rradius 83.2062
rwrist 36.7843
rhand -53.8051 -55.6398
rfingers 7.12502
rthumb -26.2367 -83.8461
lclavicle 6.90777e-015 5.1684e-015
lhumerus -114.152 -37.3035 144.245
lradius 91.5782
lwrist -16.9519
lhand -45.3412 35.1007
lfingers 7.12502
lthumb -18.1119 64.2774
rfemur -35.1072 8.15158 19.8381
rtibia 27.0482
rfoot -15.2486 -10.0819
rtoes -5.18105
lfemur -35.5715 -7.64608 -9.46587
ltibia 29.5382
lfoot -16.8291 23.0297
ltoes -0.712828
2982
root -5.55598 17.3244 21.2804 26.1354 -0.0755064 -3.15037
lowerback -18.197 1.12673 1.06136
upperback -13.8613 1.34959 -0.0418123
thorax -4.75135 0.611003 -0.458215
lowerneck -16.9527 -3.82629 -5.46803
upperneck 33.7809 -5.54863 4.4839
head 14.8446 -2.46638 1.82986
rclavicle 1.88845e-015 4.37326e-015
rhumerus -113.7 31.3489 -142.744
rradius 83.2373
rwrist 36.8452
rhand -53.8274 -55.5314
rfingers 7.12502
rthumb -26.2581 -83.7345
lclavicle 1.88845e-015 4.37326e-015
lhumerus -114.089 -37.3149 144.196
lradius 91.5448
lwrist -17.0533
lhand -45.3607 35.1443
lfingers 7.12502
lthumb -18.1308 64.3193
rfemur -35.0863 8.19503 19.8884
rtibia 27.0197
rfoot -15.221 -10.101
rtoes -5.13809
lfemur -35.5455 -7.70307 -9.38128
ltibia 29.5209
lfoot -16.8455 23.1045
ltoes -0.693801
2983
root -5.56567 17.3243 21.2764 26.1062 -0.081021 -3.16814
lowerback -18.1524 1.15035 1.12029
upperback -13.827 1.37364 -0.0276668
thorax -4.73435 0.619636 -0.47335
lowerneck -17.0286 -3.81125 -5.44844
upperneck 33.7217 -5.52416 4.48172
head 14.8319 -2.45229 1.82811
rclavicle -1.39149e-015 -1.59028e-015
rhumerus -113.723 31.3608 -142.692
rradius 83.2727
rwrist 36.9242
rhand -53.845 -55.399
rfingers 7.12502
rthumb -26.2749 -83.5996
lclavicle -1.39149e-015 -1.59028e-015
lhumerus -114.022 -37.3317 144.147
lradius 91.5053
lwrist -17.1764
lhand -45.378 35.1923
lfingers 7.12502
lthumb -18.1473 64.3657
rfemur -35.0616 8.24129 19.9326
rtibia 26.9985
rfoot -15.1958 -10.1234
rtoes -5.10619
lfemur -35.5133 -7.75983 -9.3038
ltibia 29.5039
lfoot -16.8618 23.1748
ltoes -0.66652
2984
root -5.57484 17.3242 21.2716 26.0876 -0.0842622 -3.17831
lowerback -18.1054 1.17185 1.17047
upperback -13.7984 1.39623 -0.0138632
thorax -4.72518 0.628147 -0.484269
lowerneck -17.1038 -3.79607 -5.42779
upperneck 33.6672 -5.49597 4.46829
head 14.8205 -2.43804 1.82224
rclavicle 4.32357e-015 4.37326e-015
rhumerus -113.746 31.3735 -142.623
rradius 83.3168
rwrist 37.0117
rhand -53.8611 -55.2576
rfingers 7.12502
rthumb -26.2904 -83.4559
lclavicle 4.32357e-015 4.37326e-015
lhumerus -113.957 -37.3548 144.102
lradius 91.4616
lwrist -17.3176
lhand -45.3922 35.2416
lfingers 7.12502
lthumb -18.1611 64.4138
rfemur -35.0567 8.27293 19.9699
rtibia 26.9872
rfoot -15.1709 -10.1359
rtoes -5.07116
lfemur -35.4978 -7.81127 -9.23482
ltibia 29.4869
lfoot -16.8694 23.2353
ltoes -0.654602
2985
root -5.58353 17.324 21.2661 26.0823 -0.0853938 -3.18323
lowerback -18.0613 1.19279 1.21379
upperback -13.7746 1.41904 -0.00152782
thorax -4.71993 0.637213 -0.492897
lowerneck -17.1761 -3.78473 -5.41042
upperneck 33.6118 -5.47011 4.4482
head 14.8081 -2.42622 1.81379
rclavicle 1.75427e-014 1.98785e-014
rhumerus -113.768 31.3856 -142.542
rradius 83.3678
rwrist 37.0973
rhand -53.8739 -55.0592
rfingers 7.12502
rthumb -26.3026 -83.2557
lclavicle 1.75427e-014 1.98785e-014
lhumerus -113.895 -37.3864 144.06
lradius 91.4147
lwrist -17.4707
lhand -45.4022 35.2921
lfingers 7.12502
lthumb -18.1706 64.4634
rfemur -35.074 8.29832 19.9994
rtibia 26.9853
rfoot -15.1486 -10.146
rtoes -5.02748
lfemur -35.5012 -7.85328 -9.17278
ltibia 29.4706
lfoot -16.8698 23.2844
ltoes -0.652386
2986
root -5.59155 17.3237 21.2605 26.0764 -0.0901923 -3.18231
lowerback -18.0151 1.2141 1.25054
upperback -13.7498 1.44323 0.00906521
thorax -4.71472 0.64739 -0.499553
lowerneck -17.2448 -3.77542 -5.39378
upperneck 33.5535 -5.44518 4.42281
head 14.7934 -2.41571 1.80311
rclavicle 1.2424e-015 1.11319e-014
rhumerus -113.787 31.3998 -142.445
rradius 83.4297
rwrist 37.1829
rhand -53.8797 -54.8017
rfingers 7.12502
rthumb -26.3081 -82.9973
lclavicle 1.2424e-015 1.11319e-014
lhumerus -113.83 -37.4251 144.015
lradius 91.3651
lwrist -17.6309
lhand -45.4011 35.3357
lfingers 7.12502
lthumb -18.1696 64.5071
rfemur -35.0963 8.31824 20.0206
rtibia 26.9925
rfoot -15.1298 -10.1492
rtoes -4.97371
lfemur -35.5044 -7.89575 -9.12043
ltibia 29.4536
lfoot -16.8687 23.3323
ltoes -0.646301
2987
root -5.59895 17.3234 21.2547 26.0746 -0.100192 -3.1792
lowerback -17.9691 1.23574 1.28081
upperback -13.7269 1.4687 0.018549
thorax -4.71177 0.658631 -0.503628
lowerneck -17.3205 -3.77146 -5.36972
upperneck 33.5041 -5.42489 4.38062
head 14.784 -2.40849 1.78334
rclavicle 2.11706e-014 1.86858e-014
rhumerus -113.815 31.4108 -142.361
rradius 83.4944
rwrist 37.2436
rhand -53.8938 -54.5481
rfingers 7.12502
rthumb -26.3217 -82.7417
lclavicle 2.11706e-014 1.86858e-014
lhumerus -113.77 -37.4687 143.97
lradius 91.3166
lwrist -17.7797
lhand -45.3969 35.3806
lfingers 7.12502
lthumb -18.1655 64.5524
rfemur -35.1276 8.34001 20.0343
rtibia 27.005
rfoot -15.1132 -10.1515
rtoes -4.92187
lfemur -35.5118 -7.93621 -9.07369
ltibia 29.4357
lfoot -16.8648 23.3826
ltoes -0.64289
2988
root -5.60569 17.3232 21.2491 26.0721 -0.113498 -3.17311
lowerback -17.927 1.257 1.3057
upperback -13.7029 1.49428 0.0274455
thorax -4.70552 0.67032 -0.505218
lowerneck -17.3934 -3.76813 -5.34228
upperneck 33.4567 -5.40541 4.33391
head 14.7746 -2.40187 1.76106
rclavicle 1.42131e-014 1.0138e-014
rhumerus -113.838 31.4238 -142.272
rradius 83.5644
rwrist 37.2998
rhand -53.9016 -54.2952
rfingers 7.12502
rthumb -26.3292 -82.4876
lclavicle 1.42131e-014 1.0138e-014
lhumerus -113.708 -37.5143 143.922
lradius 91.2708
lwrist -17.9185
lhand -45.3798 35.4085
lfingers 7.12502
lthumb -18.149 64.5818
rfemur -35.1591 8.35383 20.0445
rtibia 27.0205
rfoot -15.1016 -10.146
rtoes -4.8684
lfemur -35.5162 -7.97927 -9.0331
ltibia 29.416
lfoot -16.8648 23.4344
ltoes -0.623284
